<svg xmlns="http://www.w3.org/2000/svg" width="199.78" height="72" viewBox="0 0 199.78 72">
  <g id="dcsa-logo-solid-purple" transform="translate(-8.11 -9)">
    <g id="Group_3086" data-name="Group 3086">
      <path id="Path_14409" data-name="Path 14409" d="M25.7,24.02H23.3V42.35h2.4a9.17,9.17,0,0,0,6.99-2.51A9.179,9.179,0,0,0,25.7,24.02Z" fill="#27254f"/>
      <g id="Group_3085" data-name="Group 3085">
        <path id="Path_14410" data-name="Path 14410" d="M79.41,20.95C74.7,13.17,67.55,9.1,58.31,9.04c-3.36-.02-6.73-.03-10.09-.04L9.58,9.01H8.11V80.99H9.58L48.22,81c3.36-.01,6.73-.02,10.09-.04,9.23-.06,16.39-4.13,21.1-11.91C83.63,62.08,89.22,52.1,93.23,45,89.23,37.91,83.64,27.93,79.41,20.95ZM21.98,22.78h3.76c3.04,0,5.44.5,7.73,2.62a10.771,10.771,0,0,1,.11,15.43c-2.29,2.21-4.75,2.76-7.84,2.76H21.98S21.98,22.78,21.98,22.78ZM27.72,67.5a7.242,7.242,0,0,1-7.12-5.11l3.05-1.29c.86,1.89,1.84,3.22,4.12,3.22a3.067,3.067,0,0,0,3.26-3.09c0-4.5-9.1-2.96-9.1-9.31a5.753,5.753,0,0,1,6.01-5.71,6.083,6.083,0,0,1,5.36,3.73l-2.87,1.5a3.221,3.221,0,0,0-2.75-2.06,2.444,2.444,0,0,0-2.49,2.23c0,1.84,2.32,2.53,4.68,3.52s4.68,2.4,4.68,5.79A6.617,6.617,0,0,1,27.72,67.5Zm27.69-.56H51.98V64.15h-.09a8.486,8.486,0,0,1-6.95,3.35c-5.92,0-9.65-5.02-9.65-10.6,0-5.75,3.65-10.68,9.7-10.68a8.74,8.74,0,0,1,6.91,3.43h.09V46.78h3.43V66.94Zm0-39.91a9.509,9.509,0,0,0-6.99-3.29,9.67,9.67,0,0,0-9.47,9.58,9.051,9.051,0,0,0,2.79,6.43,10.077,10.077,0,0,0,6.68,2.87,9.914,9.914,0,0,0,6.99-3.18v1.82a10.715,10.715,0,1,1-6.9-18.77,10.289,10.289,0,0,1,6.9,2.71Z" fill="#27254f"/>
        <path id="Path_14411" data-name="Path 14411" d="M45.37,49.39c-3.99,0-6.56,3.48-6.56,7.25,0,3.95,2.32,7.68,6.61,7.68,4.42,0,6.74-3.56,6.74-7.64C52.15,52.66,49.62,49.39,45.37,49.39Z" fill="#27254f"/>
      </g>
    </g>
    <g id="Group_3087" data-name="Group 3087">
      <path id="Path_14412" data-name="Path 14412" d="M106.31,21.54h1.79a5.2,5.2,0,0,1,3.7,1.14,4.865,4.865,0,0,1,.02,7.14,5.016,5.016,0,0,1-3.75,1.19h-1.76S106.31,21.54,106.31,21.54Zm1.82,8.5a3.945,3.945,0,0,0,2.99-.98,3.879,3.879,0,0,0-.05-5.62,4.059,4.059,0,0,0-2.94-.92h-.77v7.52Z" fill="#27254f"/>
      <path id="Path_14413" data-name="Path 14413" d="M118.38,27.19a3.5,3.5,0,0,0,.41,2.11,2.452,2.452,0,0,0,1.91.91,2.5,2.5,0,0,0,1.86-.84,3.278,3.278,0,0,0,.46-2.18V21.54h1.06v5.94a3.355,3.355,0,0,1-.83,2.63,3.5,3.5,0,0,1-2.55,1.08,3.542,3.542,0,0,1-2.45-.97,3.339,3.339,0,0,1-.93-2.74V21.54h1.06Z" fill="#27254f"/>
      <path id="Path_14414" data-name="Path 14414" d="M129.53,31.02h-1.06V21.54h1.37c1.8,0,3.47.48,3.47,2.62a2.485,2.485,0,0,1-2.38,2.62l3.02,4.25h-1.3l-2.87-4.16h-.26l.01,4.15Zm0-5.09h.33c1.19,0,2.4-.23,2.4-1.7,0-1.56-1.14-1.71-2.41-1.71h-.31l-.01,3.41Z" fill="#27254f"/>
      <path id="Path_14415" data-name="Path 14415" d="M143.77,25.39V21.54h1.06v9.48h-1.06V26.37h-4.85v4.65h-1.06V21.54h1.06v3.85Z" fill="#27254f"/>
      <path id="Path_14416" data-name="Path 14416" d="M150.72,28.33l-1.14,2.69h-1.16l4.38-9.94,4.26,9.94h-1.17l-1.12-2.69Zm2.05-4.78-1.62,3.8h3.21Z" fill="#27254f"/>
      <path id="Path_14417" data-name="Path 14417" d="M161.84,21l3.45,7.96L168.75,21l1.92,10.02h-1.08l-1.22-6.41h-.03l-3.06,6.8-3.04-6.8h-.03L161,31.02h-1.08Z" fill="#27254f"/>
      <path id="Path_14418" data-name="Path 14418" d="M113.54,36.19a4.053,4.053,0,0,0-2.89-1.26,3.921,3.921,0,0,0,.03,7.84,4.145,4.145,0,0,0,2.87-1.26v1.31a4.9,4.9,0,0,1-7.77-3.94,4.957,4.957,0,0,1,4.94-4.94,4.558,4.558,0,0,1,2.83.93v1.32h-.01Z" fill="#27254f"/>
      <path id="Path_14419" data-name="Path 14419" d="M127.25,38.87a4.94,4.94,0,1,1-4.94-4.92A4.914,4.914,0,0,1,127.25,38.87Zm-8.83-.01a3.89,3.89,0,1,0,3.89-3.92A3.92,3.92,0,0,0,118.42,38.86Z" fill="#27254f"/>
      <path id="Path_14420" data-name="Path 14420" d="M132.25,42.62h2.62v.98H131.2V34.12h1.06l-.01,8.5Z" fill="#27254f"/>
      <path id="Path_14421" data-name="Path 14421" d="M139.48,42.62h2.62v.98h-3.67V34.12h1.06l-.01,8.5Z" fill="#27254f"/>
      <path id="Path_14422" data-name="Path 14422" d="M145.66,34.12h4.92v.98h-3.86v2.82h3.75v.98h-3.75v3.72h3.86v.98h-4.92Z" fill="#27254f"/>
      <path id="Path_14423" data-name="Path 14423" d="M163.7,38.83a4.5,4.5,0,0,1-.98,3.35,4.674,4.674,0,0,1-3.51,1.58A4.905,4.905,0,1,1,163.28,36l-.77.72a3.854,3.854,0,0,0-3.26-1.79,3.931,3.931,0,0,0-3.87,3.96,3.8,3.8,0,0,0,1.11,2.68,4,4,0,0,0,2.69,1.21,3.251,3.251,0,0,0,3.38-2.97h-2.82v-.98Z" fill="#27254f"/>
      <path id="Path_14424" data-name="Path 14424" d="M167.71,34.12h4.92v.98h-3.86v2.82h3.75v.98h-3.75v3.72h3.86v.98h-4.92Z" fill="#27254f"/>
      <path id="Path_14425" data-name="Path 14425" d="M110.5,48.78a1.692,1.692,0,0,0-1.42-.78,1.131,1.131,0,0,0-1.16,1.07c0,1.6,3.76.93,3.76,4.11a2.993,2.993,0,0,1-3.12,3.24,3.358,3.358,0,0,1-2.92-1.85l1.2-1.17a1.944,1.944,0,0,0,1.71,1.38,1.269,1.269,0,0,0,1.22-1.37c0-.98-.91-1.26-1.65-1.55-1.22-.5-2.11-1.12-2.11-2.59a2.761,2.761,0,0,1,2.77-2.84,3.909,3.909,0,0,1,2.59,1.06Z" fill="#27254f"/>
      <path id="Path_14426" data-name="Path 14426" d="M118.24,56.17h-1.85V48.3h-1.91V46.69h5.67V48.3h-1.91S118.24,56.17,118.24,56.17Z" fill="#27254f"/>
      <path id="Path_14427" data-name="Path 14427" d="M123.3,46.69h1.85V52c0,1.17.1,2.82,1.67,2.82s1.67-1.65,1.67-2.82V46.69h1.85v5.67c0,2.31-.98,4.06-3.52,4.06s-3.52-1.75-3.52-4.06V46.69Z" fill="#27254f"/>
      <path id="Path_14428" data-name="Path 14428" d="M134.16,46.69h2.64a4.743,4.743,0,0,1-.01,9.48h-2.63Zm1.85,7.87h.3c2.28,0,3.16-1.26,3.16-3.13,0-2.06-1.06-3.13-3.16-3.13h-.3Z" fill="#27254f"/>
      <path id="Path_14429" data-name="Path 14429" d="M146.65,48.3v2.09h2.94V52h-2.94v2.57h3.06v1.61h-4.9V46.7h4.9v1.61h-3.06Z" fill="#27254f"/>
      <path id="Path_14430" data-name="Path 14430" d="M153.45,46.44h1.33l4.99,6.63h.03V46.69h1.85v9.67h-1.33l-4.99-6.63h-.03v6.44h-1.85Z" fill="#27254f"/>
      <path id="Path_14431" data-name="Path 14431" d="M168.59,56.17h-1.85V48.3h-1.91V46.69h5.67V48.3h-1.91v7.87Z" fill="#27254f"/>
      <path id="Path_14432" data-name="Path 14432" d="M107.97,66.75l-.78,2h-1.95l3.7-9.73h1.43l3.6,9.73H112l-.73-2Zm1.6-4.96h-.03l-1.04,3.45h2.25Z" fill="#27254f"/>
      <path id="Path_14433" data-name="Path 14433" d="M121.51,61.35a1.692,1.692,0,0,0-1.42-.78,1.131,1.131,0,0,0-1.16,1.07c0,1.6,3.76.93,3.76,4.11a2.993,2.993,0,0,1-3.12,3.24,3.358,3.358,0,0,1-2.92-1.85l1.2-1.17a1.944,1.944,0,0,0,1.71,1.38,1.269,1.269,0,0,0,1.22-1.37c0-.98-.91-1.26-1.65-1.55-1.22-.5-2.11-1.12-2.11-2.59A2.761,2.761,0,0,1,119.79,59a3.909,3.909,0,0,1,2.59,1.06Z" fill="#27254f"/>
      <path id="Path_14434" data-name="Path 14434" d="M130.64,61.35a1.692,1.692,0,0,0-1.42-.78,1.131,1.131,0,0,0-1.16,1.07c0,1.6,3.76.93,3.76,4.11a2.993,2.993,0,0,1-3.12,3.24,3.358,3.358,0,0,1-2.92-1.85l1.2-1.17a1.944,1.944,0,0,0,1.71,1.38,1.269,1.269,0,0,0,1.22-1.37c0-.98-.91-1.26-1.65-1.55-1.22-.5-2.11-1.12-2.11-2.59A2.761,2.761,0,0,1,128.92,59a3.909,3.909,0,0,1,2.59,1.06Z" fill="#27254f"/>
      <path id="Path_14435" data-name="Path 14435" d="M139.54,69c-2.89,0-4.69-2.21-4.69-5.01a4.7,4.7,0,1,1,9.38,0C144.24,66.79,142.44,69,139.54,69Zm0-8.16a2.9,2.9,0,0,0-2.78,3.08c0,1.46.73,3.26,2.78,3.26s2.78-1.8,2.78-3.26A2.9,2.9,0,0,0,139.54,60.84Z" fill="#27254f"/>
      <path id="Path_14436" data-name="Path 14436" d="M153.99,61.78a2.751,2.751,0,0,0-2.09-1.01,3.012,3.012,0,0,0-2.79,3.27,2.982,2.982,0,0,0,2.78,3.19,2.912,2.912,0,0,0,2.1-1.01v2.2a4.921,4.921,0,0,1-2.15.57,4.777,4.777,0,0,1-4.64-4.92A4.828,4.828,0,0,1,151.88,59a4.423,4.423,0,0,1,2.11.55v2.23Z" fill="#27254f"/>
      <path id="Path_14437" data-name="Path 14437" d="M159.58,68.75h-1.85V59.27h1.85Z" fill="#27254f"/>
      <path id="Path_14438" data-name="Path 14438" d="M165.37,66.75l-.78,2h-1.95l3.7-9.73h1.43l3.6,9.73H169.4l-.73-2Zm1.6-4.96h-.03l-1.04,3.45h2.25Z" fill="#27254f"/>
      <path id="Path_14439" data-name="Path 14439" d="M176.53,68.75h-1.85V60.88h-1.91V59.27h5.67v1.61h-1.91v7.87Z" fill="#27254f"/>
      <path id="Path_14440" data-name="Path 14440" d="M183.48,68.75h-1.85V59.27h1.85Z" fill="#27254f"/>
      <path id="Path_14441" data-name="Path 14441" d="M191.58,69c-2.89,0-4.69-2.21-4.69-5.01a4.7,4.7,0,1,1,9.38,0C196.27,66.79,194.47,69,191.58,69Zm0-8.16a2.9,2.9,0,0,0-2.78,3.08c0,1.46.73,3.26,2.78,3.26s2.78-1.8,2.78-3.26A2.9,2.9,0,0,0,191.58,60.84Z" fill="#27254f"/>
      <path id="Path_14442" data-name="Path 14442" d="M199.69,59.01h1.33l4.99,6.63h.03V59.26h1.85v9.67h-1.33l-4.99-6.63h-.03v6.44h-1.85Z" fill="#27254f"/>
    </g>
  </g>
</svg>
